<svg xmlns="http://www.w3.org/2000/svg" viewBox="0 0 900 180" width="900" height="180" fill="none">
  <!-- Symbol: grön cirkel -->
  <circle cx="90" cy="90" r="72" fill="#1a8c3a"/>
  <circle cx="90" cy="90" r="72" fill="none" stroke="#0d3d1a" stroke-width="6"/>
  <!-- Vit figur: huvud -->
  <circle cx="74" cy="64" r="17" fill="#fff"/>
  <!-- Leende -->
  <path d="M66 64 q8 8 16 0" stroke="#1a8c3a" stroke-width="2.5" fill="none" stroke-linecap="round"/>
  <!-- Kropp -->
  <path d="M50 96 q0-16 24-16 t24 16 v34 a6 6 0 0 1-6 6 H56 a6 6 0 0 1-6-6 z" fill="#fff"/>
  <!-- Upplyft arm -->
  <path d="M98 92 L130 60 a8 8 0 0 1 11 11 L116 100 a8 8 0 0 1-18-8 z" fill="#fff"/>
  <!-- Text -->
  <text x="185" y="122" font-family="Nunito, sans-serif" font-weight="800" font-size="96" letter-spacing="-2">
    <tspan fill="#111c13">Lag</tspan><tspan fill="#1a8c3a">Passet</tspan>
  </text>
</svg>